<svg width="84" height="28" viewBox="0 0 84 28" fill="none" xmlns="http://www.w3.org/2000/svg">
<path d="M5.18056 4.47541V0H0V19.9672C0 24.2514 2.28554 28 8.11368 28C13.9418 28 16.1512 24.2131 16.1512 20.0055V14.3443H11.2753V19.5464C11.2753 22.0328 10.323 23.4481 8.18986 23.4481C6.05669 23.4481 5.18056 21.9945 5.18056 19.4699V11.2842H16.1512V7.53552H5.18056V4.47541Z" fill="#8DC63F"/>
<path d="M35.4641 10.5191C34.5499 9.6011 33.4833 8.87432 32.2643 8.3388C31.0454 7.80328 29.7122 7.53552 28.3027 7.53552C26.8933 7.53552 25.5982 7.80328 24.3411 8.3388C23.1222 8.87432 22.0556 9.6011 21.1414 10.5191C20.2272 11.4372 19.5034 12.5082 18.9701 13.7322C18.4368 14.9563 18.1702 16.2568 18.1702 17.6721C18.1702 19.0874 18.4368 20.3497 18.9701 21.612C19.5034 22.8361 20.2272 23.9071 21.1414 24.8251C22.0556 25.7432 23.1222 26.4699 24.3411 27.0055C25.5601 27.541 26.8933 27.8087 28.3027 27.8087C29.7122 27.8087 31.0073 27.541 32.2643 27.0055C33.4833 26.4699 34.5499 25.7432 35.4641 24.8251C36.3783 23.9071 37.1021 22.8361 37.6354 21.612C38.1687 20.388 38.4353 19.0874 38.4353 17.6721C38.4353 16.2568 38.1687 14.9945 37.6354 13.7322C37.1021 12.5082 36.3783 11.4372 35.4641 10.5191ZM32.6453 19.7377C32.4167 20.388 32.0739 21 31.6168 21.4973C31.1978 21.9945 30.7026 22.4153 30.1312 22.6831C29.5598 22.9891 28.9503 23.1038 28.3027 23.1038C27.6552 23.1038 27.0457 22.9508 26.4743 22.6831C25.9029 22.3771 25.4077 21.9945 24.9887 21.4973C24.5697 21 24.2269 20.388 23.9602 19.7377C23.6936 19.0874 23.5793 18.3607 23.5793 17.5574C23.5793 16.7541 23.6936 16.1421 23.9602 15.4536C24.1888 14.8033 24.5316 14.2295 24.9887 13.7322C25.4077 13.235 25.9029 12.8525 26.4743 12.5847C27.0457 12.2787 27.6552 12.1639 28.3027 12.1639C28.9503 12.1639 29.5598 12.3169 30.1312 12.5847C30.7026 12.8525 31.1978 13.2732 31.6168 13.7322C32.0358 14.2295 32.3786 14.8033 32.6453 15.4536C32.9119 16.1038 33.0262 16.8306 33.0262 17.5574C33.0262 18.2842 32.9119 19.0492 32.6453 19.7377Z" fill="#8DC63F"/>
<path d="M56.2244 10.5956C54.815 8.60656 52.7961 7.61202 50.1296 7.61202C47.4632 7.61202 47.4251 7.87978 46.168 8.4153C44.9491 8.95082 43.8825 9.63934 42.9683 10.5574C42.0541 11.4754 41.3303 12.5464 40.797 13.7705C40.2637 14.9945 39.9971 16.2951 39.9971 17.7104C39.9971 19.1257 40.2637 20.388 40.797 21.6503C41.3303 22.8743 42.0541 23.9454 42.9683 24.8634C43.8825 25.7814 44.9491 26.5082 46.168 27.0055C47.387 27.541 48.7202 27.8087 50.1296 27.8087C51.5391 27.8087 53.558 27.3115 54.815 26.3169H54.8531C54.8531 26.2787 52.9485 22.7596 52.9485 22.7596H52.8723C52.5676 22.9126 52.2247 23.0273 51.8438 23.0656C51.4629 23.1038 51.12 23.1421 50.7391 23.1421C49.9773 23.1421 49.2916 22.9891 48.644 22.7213C47.9965 22.4153 47.4251 22.0328 46.9299 21.5738C46.4347 21.0765 46.0538 20.5027 45.7871 19.8525C45.4824 19.2022 45.3681 18.4754 45.3681 17.7486C45.3681 17.0219 45.5205 16.2951 45.7871 15.6448C46.0919 14.9945 46.4728 14.4208 46.9299 13.9235C47.387 13.4262 47.9965 13.0437 48.644 12.776C49.2916 12.5082 50.0154 12.3552 50.7391 12.3552C51.4629 12.3552 52.1866 12.5082 52.8723 12.776C53.5199 13.0437 54.0913 13.4262 54.5865 13.9235C55.0817 14.4208 55.4626 14.9945 55.7673 15.6448C56.0721 16.2951 56.2244 16.9836 56.2244 17.7104V27.541C56.1863 27.541 61.405 27.541 61.405 27.541V0H56.2244V10.5956Z" fill="#8DC63F"/>
<path d="M82.7367 13.7322C82.2034 12.5082 81.4796 11.4372 80.5654 10.5191C79.6512 9.6011 78.5846 8.87432 77.3657 8.3388C76.1467 7.80328 74.8135 7.53552 73.4041 7.53552C71.9946 7.53552 70.6995 7.80328 69.4424 8.3388C68.2235 8.87432 67.1569 9.6011 66.2427 10.5191C65.3285 11.4372 64.6047 12.5082 64.0714 13.7322C63.5381 14.9563 63.2715 16.2568 63.2715 17.6721C63.2715 19.0874 63.5381 20.3497 64.0714 21.612C64.6047 22.8361 65.3285 23.9071 66.2427 24.8251C67.1569 25.7432 68.2235 26.4699 69.4424 27.0055C70.6614 27.541 71.9946 27.8087 73.4041 27.8087C74.8135 27.8087 76.1086 27.541 77.3657 27.0055C78.5846 26.4699 79.6512 25.7432 80.5654 24.8251C81.4796 23.9071 82.2034 22.8361 82.7367 21.612C83.27 20.388 83.5366 19.0874 83.5366 17.6721C83.5366 16.2568 83.27 14.9945 82.7367 13.7322ZM77.7466 19.6995C77.4799 20.3497 77.1752 20.9618 76.7181 21.459C76.2991 21.9563 75.8039 22.3771 75.2325 22.6448C74.6611 22.9508 74.0516 23.0656 73.4041 23.0656C72.7565 23.0656 72.147 22.9126 71.5756 22.6448C71.0042 22.3388 70.509 21.9563 70.09 21.459C69.671 20.9618 69.3282 20.3497 69.0615 19.6995C68.7949 19.0492 68.6806 18.3224 68.6806 17.5191C68.6806 16.7158 68.7949 16.1038 69.0615 15.4153C69.2901 14.765 69.6329 14.1913 70.09 13.694C70.509 13.1967 71.0042 12.8142 71.5756 12.5465C72.147 12.2787 72.7565 12.1257 73.4041 12.1257C74.0516 12.1257 74.6611 12.2787 75.2325 12.5465C75.8039 12.8525 76.2991 13.235 76.7181 13.694C77.1371 14.1913 77.4799 14.765 77.7466 15.4153C77.9751 16.0656 78.1275 16.7924 78.1275 17.5191C78.1275 18.2459 78.0132 19.0109 77.7466 19.6995Z" fill="#8DC63F"/>
</svg>
