<svg width="127" height="29" viewBox="0 0 127 29" fill="none" xmlns="http://www.w3.org/2000/svg">
<path d="M5.18056 4.47541V0H0V19.9672C0 24.2514 2.28554 28 8.11368 28C13.9418 28 16.1512 24.2131 16.1512 20.0055V14.3443H11.2753V19.5464C11.2753 22.0328 10.323 23.4481 8.18986 23.4481C6.05669 23.4481 5.18056 21.9945 5.18056 19.4699V11.2842H16.1512V7.53552H5.18056V4.47541Z" fill="#8DC63F"/>
<path d="M35.4639 10.5188C34.5496 9.60073 33.4831 8.87395 32.2641 8.33843C31.0451 7.80292 29.7119 7.53516 28.3025 7.53516C26.8931 7.53516 25.5979 7.80292 24.3409 8.33843C23.1219 8.87395 22.0553 9.60073 21.1411 10.5188C20.2269 11.4368 19.5032 12.5078 18.9699 13.7319C18.4366 14.9559 18.1699 16.2565 18.1699 17.6718C18.1699 19.0871 18.4366 20.3494 18.9699 21.6117C19.5032 22.8357 20.2269 23.9067 21.1411 24.8248C22.0553 25.7428 23.1219 26.4696 24.3409 27.0051C25.5598 27.5406 26.8931 27.8084 28.3025 27.8084C29.7119 27.8084 31.0071 27.5406 32.2641 27.0051C33.4831 26.4696 34.5496 25.7428 35.4639 24.8248C36.3781 23.9067 37.1018 22.8357 37.6351 21.6117C38.1684 20.3876 38.4351 19.0871 38.4351 17.6718C38.4351 16.2565 38.1684 14.9942 37.6351 13.7319C37.1018 12.5078 36.3781 11.4368 35.4639 10.5188ZM32.645 19.7373C32.4165 20.3876 32.0736 20.9996 31.6165 21.4969C31.1975 21.9942 30.7023 22.4149 30.1309 22.6827C29.5595 22.9887 28.9501 23.1035 28.3025 23.1035C27.6549 23.1035 27.0454 22.9505 26.4741 22.6827C25.9027 22.3767 25.4075 21.9942 24.9885 21.4969C24.5694 20.9996 24.2266 20.3876 23.96 19.7373C23.6933 19.0871 23.579 18.3603 23.579 17.557C23.579 16.7537 23.6933 16.1417 23.96 15.4532C24.1885 14.8029 24.5313 14.2291 24.9885 13.7319C25.4075 13.2346 25.9027 12.8521 26.4741 12.5843C27.0454 12.2783 27.6549 12.1636 28.3025 12.1636C28.9501 12.1636 29.5595 12.3166 30.1309 12.5843C30.7023 12.8521 31.1975 13.2729 31.6165 13.7319C32.0355 14.2291 32.3784 14.8029 32.645 15.4532C32.9117 16.1035 33.026 16.8302 33.026 17.557C33.026 18.2838 32.9117 19.0488 32.645 19.7373Z" fill="#8DC63F"/>
<path d="M56.2244 10.5956C54.815 8.60656 52.7961 7.61202 50.1296 7.61202C47.4632 7.61202 47.4251 7.87978 46.168 8.4153C44.9491 8.95082 43.8825 9.63934 42.9683 10.5574C42.0541 11.4754 41.3303 12.5464 40.797 13.7705C40.2637 14.9945 39.9971 16.2951 39.9971 17.7104C39.9971 19.1257 40.2637 20.388 40.797 21.6503C41.3303 22.8743 42.0541 23.9454 42.9683 24.8634C43.8825 25.7814 44.9491 26.5082 46.168 27.0055C47.387 27.541 48.7202 27.8087 50.1296 27.8087C51.5391 27.8087 53.558 27.3115 54.815 26.3169H54.8531C54.8531 26.2787 52.9485 22.7596 52.9485 22.7596H52.8723C52.5676 22.9126 52.2247 23.0273 51.8438 23.0656C51.4629 23.1038 51.12 23.1421 50.7391 23.1421C49.9773 23.1421 49.2916 22.9891 48.644 22.7213C47.9965 22.4153 47.4251 22.0328 46.9299 21.5738C46.4347 21.0765 46.0538 20.5027 45.7871 19.8525C45.4824 19.2022 45.3681 18.4754 45.3681 17.7486C45.3681 17.0219 45.5205 16.2951 45.7871 15.6448C46.0919 14.9945 46.4728 14.4208 46.9299 13.9235C47.387 13.4262 47.9965 13.0437 48.644 12.776C49.2916 12.5082 50.0154 12.3552 50.7391 12.3552C51.4629 12.3552 52.1866 12.5082 52.8723 12.776C53.5199 13.0437 54.0913 13.4262 54.5865 13.9235C55.0817 14.4208 55.4626 14.9945 55.7673 15.6448C56.0721 16.2951 56.2244 16.9836 56.2244 17.7104V27.541C56.1863 27.541 61.405 27.541 61.405 27.541V0H56.2244V10.5956Z" fill="#8DC63F"/>
<path d="M82.7367 13.7319C82.2034 12.5078 81.4796 11.4368 80.5654 10.5188C79.6512 9.60073 78.5846 8.87395 77.3657 8.33843C76.1467 7.80292 74.8135 7.53516 73.4041 7.53516C71.9946 7.53516 70.6995 7.80292 69.4424 8.33843C68.2235 8.87395 67.1569 9.60073 66.2427 10.5188C65.3285 11.4368 64.6047 12.5078 64.0714 13.7319C63.5381 14.9559 63.2715 16.2565 63.2715 17.6718C63.2715 19.0871 63.5381 20.3494 64.0714 21.6117C64.6047 22.8357 65.3285 23.9067 66.2427 24.8248C67.1569 25.7428 68.2235 26.4696 69.4424 27.0051C70.6614 27.5406 71.9946 27.8084 73.4041 27.8084C74.8135 27.8084 76.1086 27.5406 77.3657 27.0051C78.5846 26.4696 79.6512 25.7428 80.5654 24.8248C81.4796 23.9067 82.2034 22.8357 82.7367 21.6117C83.27 20.3876 83.5366 19.0871 83.5366 17.6718C83.5366 16.2565 83.27 14.9942 82.7367 13.7319ZM77.7466 19.6991C77.4799 20.3494 77.1752 20.9614 76.7181 21.4587C76.2991 21.9559 75.8039 22.3767 75.2325 22.6444C74.6611 22.9505 74.0516 23.0652 73.4041 23.0652C72.7565 23.0652 72.147 22.9122 71.5756 22.6444C71.0042 22.3384 70.509 21.9559 70.09 21.4587C69.671 20.9614 69.3282 20.3494 69.0615 19.6991C68.7949 19.0488 68.6806 18.322 68.6806 17.5188C68.6806 16.7155 68.7949 16.1035 69.0615 15.4149C69.2901 14.7647 69.6329 14.1909 70.09 13.6936C70.509 13.1964 71.0042 12.8138 71.5756 12.5461C72.147 12.2783 72.7565 12.1253 73.4041 12.1253C74.0516 12.1253 74.6611 12.2783 75.2325 12.5461C75.8039 12.8521 76.2991 13.2346 76.7181 13.6936C77.1371 14.1909 77.4799 14.7647 77.7466 15.4149C77.9751 16.0652 78.1275 16.792 78.1275 17.5188C78.1275 18.2455 78.0132 19.0106 77.7466 19.6991Z" fill="#8DC63F"/>
<path d="M85.4411 25.9727C85.7077 25.9727 85.9744 26.0874 86.1648 26.2787C86.3553 26.4699 86.4696 26.6994 86.4315 27.0054C86.4315 27.2732 86.3172 27.541 86.1267 27.7322C85.9363 27.9235 85.6696 28.0382 85.403 28.0382C85.1363 28.0382 84.9078 27.9235 84.6792 27.7322C84.4888 27.541 84.3745 27.2732 84.4126 27.0054C84.4126 26.7377 84.5268 26.5082 84.7173 26.2787C84.9078 26.0492 85.1363 25.9727 85.4411 26.0109V25.9727Z" fill="white"/>
<path d="M91.9168 25.437L93.2882 26.355C92.9834 26.8905 92.5644 27.273 92.0692 27.5791C91.574 27.8851 91.0026 27.9998 90.4312 27.9998C89.8598 27.9998 89.517 27.9233 89.1361 27.7321C88.7171 27.5408 88.3742 27.3113 88.0695 27.0053C87.7648 26.6993 87.5362 26.355 87.3457 25.9342C87.1553 25.5135 87.0791 25.0927 87.0791 24.6337C87.0791 24.1747 87.1553 23.7539 87.3457 23.3332C87.5362 22.9124 87.7648 22.5681 88.0695 22.2621C88.3742 21.9561 88.7171 21.7266 89.1361 21.5353C89.5551 21.3441 89.9741 21.2676 90.4312 21.2676C90.8883 21.2676 91.574 21.4206 92.0692 21.6883C92.5644 21.9944 92.9834 22.3769 93.2882 22.9124L91.8787 23.8304C91.7264 23.4862 91.5359 23.2566 91.2693 23.0271C91.0026 22.8359 90.736 22.7211 90.3931 22.7211C90.0503 22.7211 89.936 22.7594 89.7456 22.8741C89.5551 22.9889 89.3646 23.1036 89.2123 23.2566C89.0599 23.4097 88.9456 23.6009 88.8694 23.8304C88.7933 24.0599 88.7552 24.2894 88.7552 24.5189C88.7552 24.7485 88.7933 25.0162 88.8694 25.2075C88.9456 25.437 89.0599 25.6282 89.2123 25.7812C89.3646 25.9342 89.517 26.049 89.7456 26.1638C89.936 26.2403 90.1646 26.3168 90.3931 26.3168C90.6217 26.3168 91.0026 26.2403 91.2693 26.049C91.5359 25.8577 91.7264 25.6282 91.8787 25.3222L91.9168 25.437Z" fill="white"/>
<path d="M97.0211 21.3438C97.4782 21.3438 97.9353 21.4203 98.3162 21.6115C98.7352 21.8028 99.0781 22.0323 99.3828 22.3383C99.6875 22.6443 99.9161 22.9886 100.107 23.4093C100.297 23.8301 100.373 24.2509 100.373 24.7099C100.373 25.1689 100.297 25.5897 100.107 26.0104C99.9161 26.4312 99.6875 26.7754 99.3828 27.0815C99.0781 27.3875 98.7352 27.617 98.3162 27.8082C97.8972 27.9995 97.4782 28.076 97.0211 28.076C96.564 28.076 96.1069 27.9995 95.7259 27.8082C95.3069 27.617 94.9641 27.3875 94.6593 27.0815C94.3546 26.7754 94.1261 26.4312 93.9356 26.0104C93.7451 25.5897 93.6689 25.1689 93.6689 24.7099C93.6689 24.2509 93.7451 23.8301 93.9356 23.4093C94.1261 22.9886 94.3546 22.6443 94.6593 22.3383C94.9641 22.0323 95.3069 21.8028 95.7259 21.6115C96.145 21.4203 96.564 21.3438 97.0211 21.3438ZM97.0211 26.4694C97.2496 26.4694 97.4401 26.4312 97.6306 26.3164C97.821 26.2399 97.9734 26.0869 98.1258 25.9339C98.2781 25.7809 98.3924 25.5897 98.4686 25.3601C98.5448 25.1306 98.5829 24.9011 98.5829 24.6334C98.5829 24.3656 98.5448 24.1744 98.4686 23.9448C98.3924 23.7153 98.2781 23.5241 98.1258 23.3711C97.9734 23.2181 97.821 23.1033 97.6306 22.9886C97.4401 22.9121 97.2496 22.8356 97.0211 22.8356C96.7925 22.8356 96.6021 22.8738 96.4116 22.9886C96.2211 23.0651 96.0688 23.2181 95.9164 23.3711C95.764 23.5241 95.6497 23.7153 95.5736 23.9448C95.4974 24.1744 95.4593 24.4039 95.4593 24.6334C95.4593 24.8629 95.4974 25.1306 95.5736 25.3601C95.6497 25.5897 95.764 25.7809 95.9164 25.9339C96.0688 26.0869 96.2211 26.2399 96.4116 26.3164C96.6021 26.3929 96.7925 26.4694 97.0211 26.4694Z" fill="white"/>
<path d="M100.983 21.4204H102.697V27.8849H100.983V21.4204ZM107.954 21.3057C108.373 21.3057 108.716 21.3822 108.982 21.5352C109.249 21.6882 109.478 21.9177 109.668 22.1472C109.82 22.415 109.973 22.6827 110.049 23.027C110.125 23.3712 110.163 23.6772 110.163 23.9833V27.8466H108.449V23.9833C108.449 23.8303 108.449 23.7155 108.373 23.6007C108.335 23.486 108.259 23.3712 108.144 23.2947C108.068 23.2182 107.954 23.1417 107.84 23.0652C107.725 22.9887 107.573 22.9887 107.459 22.9887C107.192 22.9887 106.925 23.1035 106.735 23.2947C106.544 23.486 106.43 23.7538 106.43 24.0215V27.8849H104.716V24.0215C104.716 23.8685 104.716 23.7538 104.64 23.639C104.602 23.5242 104.526 23.4095 104.411 23.333C104.335 23.2565 104.221 23.18 104.068 23.1035C103.954 23.0652 103.802 23.027 103.649 23.027C103.497 23.027 103.611 22.9505 103.535 22.8357C103.459 22.721 103.383 22.568 103.307 22.415C103.23 22.2237 103.078 22.0324 102.964 21.8029C103.345 21.4969 103.726 21.3439 104.183 21.3439C104.64 21.3439 105.059 21.4587 105.364 21.6499C105.668 21.8794 105.897 22.1472 106.049 22.4532C106.049 22.3767 106.125 22.3385 106.163 22.3002C106.392 21.9942 106.659 21.7264 106.963 21.5734C107.268 21.4204 107.573 21.3439 107.916 21.3439L107.954 21.3057Z" fill="white"/>
<path d="M111.953 25.9727C112.22 25.9727 112.487 26.0874 112.677 26.2787C112.867 26.4699 112.982 26.6994 112.944 27.0054C112.944 27.2732 112.829 27.541 112.639 27.7322C112.448 27.9235 112.182 28.0382 111.915 28.0382C111.649 28.0382 111.42 27.9235 111.191 27.7322C111.001 27.541 110.887 27.2732 110.925 27.0054C110.925 26.7377 111.039 26.5082 111.23 26.2787C111.42 26.0492 111.649 25.9727 111.953 26.0109V25.9727Z" fill="white"/>
<path d="M116.943 21.3438C117.401 21.3438 117.82 21.4203 118.239 21.6115C118.658 21.8028 119 22.0323 119.305 22.3383C119.61 22.6443 119.838 22.9886 120.029 23.4093C120.219 23.8301 120.296 24.2509 120.296 24.7099C120.296 25.1689 120.296 25.2071 120.219 25.4366H116.943L116.105 24.1361H118.543C118.429 23.7918 118.239 23.4858 117.934 23.2563C117.629 23.0268 117.324 22.9121 116.943 22.9121C116.563 22.9121 116.486 22.9503 116.296 23.0651C116.105 23.1416 115.915 23.2946 115.763 23.4476C115.61 23.6006 115.496 23.7918 115.42 24.0213C115.344 24.2509 115.305 24.4804 115.305 24.7481C115.305 25.0159 115.344 25.1306 115.42 25.3601C115.496 25.5514 115.61 25.7427 115.763 25.9339C115.915 26.1252 116.067 26.2399 116.296 26.3547C116.486 26.4694 116.715 26.5459 116.982 26.5459C117.248 26.5459 117.439 26.5459 117.629 26.4312C117.82 26.3547 118.01 26.2399 118.162 26.0104L119.648 26.6607C119.343 27.1197 118.962 27.464 118.467 27.6935C118.01 27.923 117.477 28.076 116.943 28.076C116.41 28.076 116.029 27.9995 115.648 27.8082C115.229 27.6552 114.886 27.3875 114.582 27.0815C114.277 26.7754 114.048 26.4312 113.858 26.0104C113.667 25.5897 113.591 25.1689 113.591 24.7099C113.591 24.2509 113.667 23.7918 113.858 23.4093C114.048 22.9886 114.277 22.6443 114.582 22.3383C114.886 22.0323 115.229 21.8028 115.648 21.6115C116.067 21.4203 116.486 21.3438 116.943 21.3438Z" fill="white"/>
<path d="M125.591 25.437L126.962 26.355C126.657 26.8905 126.238 27.273 125.743 27.5791C125.248 27.8851 124.676 27.9998 124.105 27.9998C123.534 27.9998 123.191 27.9233 122.81 27.7321C122.391 27.5408 122.048 27.3113 121.743 27.0053C121.439 26.6993 121.21 26.355 121.02 25.9342C120.829 25.5135 120.753 25.0927 120.753 24.6337C120.753 24.1747 120.829 23.7539 121.02 23.3332C121.21 22.9124 121.439 22.5681 121.743 22.2621C122.048 21.9561 122.391 21.7266 122.81 21.5353C123.229 21.3441 123.648 21.2676 124.105 21.2676C124.562 21.2676 125.248 21.4206 125.743 21.6883C126.238 21.9944 126.657 22.3769 126.962 22.9124L125.553 23.8304C125.4 23.4862 125.21 23.2566 124.943 23.0271C124.676 22.8359 124.41 22.7211 124.067 22.7211C123.724 22.7211 123.61 22.7594 123.419 22.8741C123.229 22.9889 123.038 23.1036 122.886 23.2566C122.734 23.4097 122.619 23.6009 122.543 23.8304C122.467 24.0599 122.429 24.2894 122.429 24.5189C122.429 24.7485 122.467 25.0162 122.543 25.2075C122.619 25.437 122.734 25.6282 122.886 25.7812C123.038 25.9342 123.191 26.049 123.419 26.1638C123.61 26.2403 123.838 26.3168 124.067 26.3168C124.296 26.3168 124.676 26.2403 124.943 26.049C125.21 25.8577 125.4 25.6282 125.553 25.3222L125.591 25.437Z" fill="white"/>
</svg>
