<svg width="22" height="28" viewBox="0 0 22 28" fill="none" xmlns="http://www.w3.org/2000/svg">
<g clip-path="url(#clip0_4_384)">
<path d="M0 12.0241C0 6.49239 2.60467 2.49624 6.78656 0.825942C13.1676 -1.72441 20.4588 1.82273 21.7837 8.97091C22.4416 12.5181 21.5944 15.724 19.3142 18.5257C16.8898 21.4982 14.4383 24.4436 11.9959 27.4071C11.347 28.1973 10.653 28.1973 10.0131 27.4161C7.56165 24.4526 5.1102 21.4892 2.66776 18.5168C0.90127 16.3615 0.0270381 13.892 0 12.0241ZM11.0045 6.46545C8.61614 6.46545 6.6694 8.41414 6.67841 10.7849C6.67841 13.1377 8.63416 15.0684 11.0045 15.0684C13.3478 15.0684 15.3216 13.1018 15.3126 10.7669C15.3126 8.40516 13.3568 6.45647 11.0045 6.46545Z" fill="#8DC63F"/>
</g>
<defs>
<clipPath id="clip0_4_384">
<rect width="22" height="28" fill="white"/>
</clipPath>
</defs>
</svg>
