<svg width="12" height="9" viewBox="0 0 12 9" fill="none" xmlns="http://www.w3.org/2000/svg">
<path d="M4.15552 6.90738C4.20385 6.83008 4.24143 6.75278 4.29512 6.69756C6.35687 4.5718 8.42398 2.44603 10.4911 0.325784C10.8884 -0.0828052 11.3716 -0.104891 11.7367 0.259526C12.0535 0.579771 12.0911 1.06014 11.8173 1.41904C11.7743 1.47425 11.726 1.52394 11.683 1.56811C9.37969 3.93683 7.07633 6.30002 4.77834 8.66873C4.53136 8.92272 4.25754 9.06627 3.91391 8.95585C3.76895 8.91167 3.61861 8.81781 3.51123 8.70738C2.43203 7.60861 1.35821 6.50431 0.284384 5.3945C-0.0807171 5.01903 -0.0807171 4.50002 0.262907 4.14112C0.617269 3.78223 1.11123 3.78223 1.4817 4.16321C2.30854 5.00799 3.13002 5.8583 3.95687 6.70308C4.01056 6.7583 4.06425 6.80799 4.16089 6.90186L4.15552 6.90738Z" fill="#8DC63F"/>
</svg>
